<svg width="20" height="20" viewBox="0 0 20 20" fill="none" xmlns="http://www.w3.org/2000/svg">
<path d="M11.7613 7.02254C11.7228 6.98659 11.6631 6.98659 11.6246 7.02254L8.10773 10.3115C8.06929 10.3475 8.00956 10.3475 7.97112 10.3115L2.35983 5.06388C2.32138 5.02793 2.26166 5.02793 2.22322 5.06388L1.0781 6.13479C1.03584 6.17431 1.03584 6.24134 1.0781 6.28086L7.97112 12.7272C8.00956 12.7631 8.06929 12.7631 8.10773 12.7272L11.6246 9.43818C11.6631 9.40223 11.7228 9.40223 11.7613 9.43818L15.536 12.9683C15.5783 13.0078 15.5783 13.0749 15.536 13.1144L13.7047 14.827C13.6385 14.8889 13.6823 15 13.773 15H18.9C18.9552 15 19 14.9552 19 14.9V10.1053C19 10.0178 18.8956 9.9725 18.8317 10.0323L16.9739 11.7696C16.9355 11.8056 16.8758 11.8056 16.8373 11.7696L11.7613 7.02254Z" fill="#ED6C3C"/>
</svg>
